<?xml version="1.0" encoding="utf-8"?>
<!-- Generator: Adobe Illustrator 24.1.2, SVG Export Plug-In . SVG Version: 6.00 Build 0)  -->
<svg version="1.1" id="BACKGROUND" xmlns="http://www.w3.org/2000/svg" xmlns:xlink="http://www.w3.org/1999/xlink" x="0px" y="0px"
	 viewBox="0 0 15 13" style="enable-background:new 0 0 15 13;" xml:space="preserve">
<style type="text/css">
	.st0{fill-rule:evenodd;clip-rule:evenodd;fill:#B2B2B2;}
</style>
<path class="st0" d="M14.93,1.95c-0.53,0.23-1.09,0.38-1.66,0.45c-0.01,0-0.02-0.02-0.01-0.02c0.6-0.37,1.06-0.94,1.28-1.61
	c0-0.01-0.01-0.02-0.02-0.02c-0.59,0.34-1.23,0.58-1.9,0.71c-0.04,0.01-0.13-0.1-0.16-0.13c-0.06-0.05-0.12-0.1-0.18-0.15
	c-0.1-0.1-0.23-0.18-0.36-0.26c-0.27-0.15-0.55-0.27-0.85-0.33C9.99,0.34,8.83,0.7,8.08,1.52c-0.65,0.72-0.92,1.73-0.7,2.69
	c0,0.01,0,0.02-0.01,0.02C6.14,4.16,4.93,3.84,3.84,3.29C2.78,2.75,1.83,2,1.07,1.09c0-0.01-0.01-0.01-0.02-0.02
	c-0.34,0.57-0.48,1.24-0.39,1.9c0.07,0.58,0.32,1.12,0.7,1.57c0.18,0.21,0.38,0.39,0.6,0.54c0.01,0,0.01,0.02-0.01,0.02
	C1.49,5.08,1.04,4.95,0.63,4.73c-0.01,0-0.02,0-0.02,0.01c0,0.64,0.2,1.26,0.57,1.77c0.33,0.46,0.79,0.81,1.31,1.03
	C2.66,7.61,2.84,7.67,3.01,7.7c0.01,0,0.01,0.02,0,0.03c-0.42,0.11-0.87,0.13-1.3,0.05C1.7,7.78,1.69,7.79,1.7,7.8
	c0.34,1.04,1.26,1.82,2.33,2.02c0.16,0.03,0.33,0.05,0.49,0.05c0.01,0,0.02,0.02,0.01,0.02c-1.02,0.77-2.26,1.22-3.54,1.27
	c-0.31,0.01-0.62,0-0.92-0.03c-0.01,0-0.02,0.02-0.01,0.02c1.11,0.69,2.37,1.13,3.67,1.27c1.22,0.14,2.48,0.03,3.66-0.32
	c1.02-0.3,1.97-0.8,2.8-1.46c0.78-0.62,1.44-1.38,1.96-2.23c0.5-0.82,0.87-1.71,1.09-2.65c0.17-0.73,0.25-1.48,0.21-2.22
	c0-0.03-0.01-0.04,0.01-0.06c0.02-0.01,0.03-0.02,0.05-0.04c0.03-0.02,0.06-0.05,0.1-0.07c0.07-0.05,0.14-0.11,0.2-0.16
	c0.13-0.11,0.25-0.22,0.37-0.34c0.24-0.23,0.46-0.48,0.65-0.75C14.87,2.07,14.91,2.02,14.93,1.95C14.95,1.96,14.94,1.94,14.93,1.95z
	"/>
</svg>
